<svg xmlns="http://www.w3.org/2000/svg" viewBox="0 0 128 128" width="128" height="128">
  <rect width="128" height="128" rx="24" fill="#7a4cf2"/>
  <!-- Dashboard grid tiles -->
  <rect x="18" y="18" width="40" height="40" rx="8" fill="white" opacity="0.9"/>
  <rect x="66" y="18" width="44" height="18" rx="6" fill="white" opacity="0.6"/>
  <rect x="66" y="42" width="44" height="16" rx="6" fill="white" opacity="0.4"/>
  <rect x="18" y="66" width="28" height="44" rx="6" fill="white" opacity="0.6"/>
  <rect x="52" y="66" width="58" height="20" rx="6" fill="white" opacity="0.4"/>
  <rect x="52" y="92" width="58" height="18" rx="6" fill="white" opacity="0.6"/>
  <!-- Small aircraft silhouette in the main tile -->
  <g transform="translate(38, 38) scale(0.5)">
    <path d="M0,-20 C3,-20 4,-14 4,-6 L4,16 C4,19 -4,19 -4,16 L-4,-6 C-4,-14 -3,-20 0,-20Z" fill="#7a4cf2"/>
    <path d="M-4,-1 L-24,6 L-24,9 L-4,5Z" fill="#7a4cf2"/>
    <path d="M4,-1 L24,6 L24,9 L4,5Z" fill="#7a4cf2"/>
    <path d="M-4,13 L-13,17 L-13,19 L-4,16Z" fill="#7a4cf2"/>
    <path d="M4,13 L13,17 L13,19 L4,16Z" fill="#7a4cf2"/>
  </g>
</svg>
